<?xml version="1.0" encoding="UTF-8" standalone="no"?><!DOCTYPE svg PUBLIC "-//W3C//DTD SVG 1.1//EN" "http://www.w3.org/Graphics/SVG/1.1/DTD/svg11.dtd"><svg width="100%" height="100%" viewBox="0 0 128 128" version="1.1" xmlns="http://www.w3.org/2000/svg" xmlns:xlink="http://www.w3.org/1999/xlink" xml:space="preserve" xmlns:serif="http://www.serif.com/" style="fill-rule:evenodd;clip-rule:evenodd;stroke-linejoin:round;stroke-miterlimit:2;"><path d="M64,-0l55.426,32l-0,64l-55.426,32l-55.426,-32l0,-64l55.426,-32Z" style="fill:url(#_Radial1);"/><clipPath id="_clip2"><path d="M64,-0l55.426,32l-0,64l-55.426,32l-55.426,-32l0,-64l55.426,-32Z"/></clipPath><g clip-path="url(#_clip2)"><path d="M8.574,31.892l55.426,96.108l-64,0l8.574,-96.108Z" style="fill:url(#_Linear3);"/><path d="M8.574,31.892l55.426,96.108l-64,0l8.574,-96.108Z" style="fill:url(#_Linear4);"/><path d="M119.426,96.108l-55.426,-96.108l64,0l-8.574,96.108Z" style="fill:url(#_Linear5);"/></g><g><g><path d="M28.525,23.218l21.546,14.314l0.148,41.469l-21.694,-14.462l-0,-41.321Z" style="fill:#fff;"/><path d="M78.169,37.759l21.58,-14.91l0.096,47.967l-21.676,14.197l-0,-47.254Z" style="fill:#fff;"/><path d="M56.46,99.118l15.643,-10.109l-0.149,-47.014l-7.746,4.881l-7.748,-5.263l0,57.505Z" style="fill:#fff;"/><path d="M28.311,67.367l0,5.635l22.213,14.436l-0.007,-5.631l-22.206,-14.44Z" style="fill:#fff;"/><path d="M56.266,105.361l16.009,-10.976l0.054,16.705l-8.192,5.729l-0.076,5.599l-7.829,-5.438l0.034,-11.619Z" style="fill:#fff;"/><path d="M77.769,90.83l22.176,-14.612l-0,4.87l5.558,-2.743l-0.057,5.035l-27.735,17.42l0.058,-9.97Z" style="fill:#fff;"/><path d="M50.231,90.668l-22.176,-14.612l0,4.87l-5.558,-2.743l0.057,5.035l27.735,17.42l-0.058,-9.97Z" style="fill:#fff;"/></g></g><path d="M49.585,12.401l15.681,0l0,1.69l-0.926,-0c-0.437,-0 -0.791,0.354 -0.791,0.791c-0,2.914 -0,13.033 -0,15.947c-0,0.21 0.083,0.411 0.232,0.559c0.148,0.149 0.349,0.232 0.559,0.232c0.463,-0 0.956,-0 0.956,-0l0,1.677l-15.722,0l-0,-1.672l0.96,-0c0.21,-0 0.411,-0.083 0.559,-0.232c0.149,-0.148 0.232,-0.349 0.232,-0.559c-0,-2.912 -0,-13.02 -0,-15.932c-0,-0.437 -0.354,-0.791 -0.791,-0.791l-0.951,0l0.002,-1.71Zm5.241,7.97l-0,10.52c-0,0.193 0.076,0.377 0.212,0.513c0.136,0.136 0.321,0.213 0.513,0.213l3.787,-0c0.192,-0 0.377,-0.077 0.513,-0.213c0.136,-0.136 0.212,-0.32 0.212,-0.513c0,-0.361 0,-0.722 0,-0.722l-5.237,-9.798Zm5.237,5.028l0,-10.521c0,-0.192 -0.076,-0.377 -0.212,-0.513c-0.136,-0.136 -0.321,-0.212 -0.513,-0.212l-3.787,-0c-0.192,-0 -0.377,0.076 -0.513,0.212c-0.136,0.136 -0.212,0.321 -0.212,0.513c-0,0.361 -0,0.723 -0,0.723l5.237,9.798Z" style="fill:#fff;"/><path d="M77.556,31.571c-0.481,0 -0.872,-0.39 -0.872,-0.872l0,-15.7c0,-0.481 0.39,-0.872 0.872,-0.872l0.87,0l0,-1.726l-12.193,0l0,1.726l0.871,0c0.481,0 0.871,0.391 0.871,0.872l0,15.7c0,0.482 -0.39,0.872 -0.871,0.872l-0.871,0l0,1.726l12.193,0l0,-1.726l-0.87,0Zm-4.356,-16.572l0,15.7c0,0.482 -0.389,0.872 -0.87,0.872c-0.481,0 -0.871,-0.39 -0.871,-0.872l0,-15.7c0,-0.481 0.39,-0.872 0.871,-0.872c0.481,0 0.87,0.391 0.87,0.872Z" style="fill:#fff;fill-rule:nonzero;"/><defs><radialGradient id="_Radial1" cx="0" cy="0" r="1" gradientUnits="userSpaceOnUse" gradientTransform="matrix(135.648,47.6075,-47.6075,135.648,8.57437,95.0796)"><stop offset="0" style="stop-color:#8ac800;stop-opacity:1"/><stop offset="1" style="stop-color:#007b68;stop-opacity:1"/></radialGradient><linearGradient id="_Linear3" x1="0" y1="0" x2="1" y2="0" gradientUnits="userSpaceOnUse" gradientTransform="matrix(128,129.359,-129.359,128,-1.77636e-14,-1.35939)"><stop offset="0" style="stop-color:#007b68;stop-opacity:1"/><stop offset="1" style="stop-color:#a2dc1f;stop-opacity:1"/></linearGradient><linearGradient id="_Linear4" x1="0" y1="0" x2="1" y2="0" gradientUnits="userSpaceOnUse" gradientTransform="matrix(128,129.359,-129.359,128,-1.77636e-14,-1.35939)"><stop offset="0" style="stop-color:#007b68;stop-opacity:1"/><stop offset="1" style="stop-color:#a2dc1f;stop-opacity:1"/></linearGradient><linearGradient id="_Linear5" x1="0" y1="0" x2="1" y2="0" gradientUnits="userSpaceOnUse" gradientTransform="matrix(-128,-129.359,129.359,-128,128,129.359)"><stop offset="0" style="stop-color:#007b68;stop-opacity:1"/><stop offset="1" style="stop-color:#a2dc1f;stop-opacity:1"/></linearGradient></defs></svg>